# xmcd CD database file
#
# Track frame offsets:
#	150
#	13985
#	26948
#	43676
#	59358
#	74958
#	88670
#	104447
#	120422
#	134024
#	147161
#	160880
#	174293
#	188674
#	201502
#	213233
#
# Disc length: 3041 seconds
#
# Revision: 0
# Processed by: cddbd v1.5.2PL0 Copyright (c) Steve Scherf et al.
# Submitted via: CDex 1.97
#
DISCID=f60bdf10
DTITLE=Various Artist - NRJ Dance Hits 2019 [CD2)
DYEAR=2019
DGENRE=Hits
TTITLE0=Ellie Goulding, Diplo, Swae Lee - Close To Me
TTITLE1=Sam Smith and Normani - Dancing With A Stranger
TTITLE2=Gims - Miami Vice
TTITLE3=Martin Garix Ft. Bonn - No Sleep
TTITLE4=Alle Farben and Ilira - Fading
TTITLE5=Jonas Brothers - Sucker
TTITLE6=Kygo and Valerie Broussard - Think About You
TTITLE7=Martin Jensen and James Arthur - Nobody
TTITLE8=Felix Sandman - Imprint
TTITLE9=Keanu Silva And Don Diablo - King Of My Castle
TTITLE10=Karol G - Punto G
TTITLE11=Triplo Max - Shadow
TTITLE12=Alesso - Remedy
TTITLE13=Ridsa - Laisser Couler
TTITLE14=Ofenbach Ft. Benjamin Ingrosso - Paradise
TTITLE15=Seeb x Bastille - Grip
EXTD=YEAR: 2019
EXTT0=
EXTT1=
EXTT2=
EXTT3=
EXTT4=
EXTT5=
EXTT6=
EXTT7=
EXTT8=
EXTT9=
EXTT10=
EXTT11=
EXTT12=
EXTT13=
EXTT14=
EXTT15=
PLAYORDER=
